<?xml version="1.0" standalone="no"?>
<!DOCTYPE svg PUBLIC "-//W3C//DTD SVG 20010904//EN"
 "http://www.w3.org/TR/2001/REC-SVG-20010904/DTD/svg10.dtd">
<svg version="1.0" xmlns="http://www.w3.org/2000/svg"
 width="522.000000pt" height="522.000000pt" viewBox="0 0 522.000000 522.000000"
 preserveAspectRatio="xMidYMid meet">
<metadata>
Created by potrace 1.11, written by Peter Selinger 2001-2013
</metadata>
<g transform="translate(0.000000,522.000000) scale(0.100000,-0.100000)"
fill="#000000" stroke="none">
<path d="M2429 5216 c-2 -2 -37 -6 -78 -10 -157 -13 -466 -76 -524 -108 -12
-6 -24 -11 -27 -10 -8 3 -129 -39 -159 -54 -14 -8 -29 -14 -33 -14 -20 0 -237
-111 -348 -178 -151 -91 -202 -128 -350 -253 -437 -372 -750 -906 -859 -1469
-38 -192 -49 -324 -46 -545 2 -189 8 -255 41 -455 10 -64 63 -264 92 -350 166
-485 490 -935 894 -1239 343 -258 758 -436 1158 -497 19 -3 46 -7 60 -10 142
-25 608 -25 730 1 14 3 54 10 90 16 36 5 117 23 181 39 695 176 1289 633 1642
1265 164 295 272 633 313 985 16 131 9 576 -10 630 -3 8 -7 35 -10 60 -7 62
-20 129 -50 246 -143 559 -486 1073 -952 1426 -69 52 -80 59 -139 98 -16 10
-35 24 -42 29 -7 6 -14 11 -16 11 -2 0 -44 23 -93 51 -254 146 -560 256 -849
303 -139 23 -218 29 -401 32 -117 1 -213 1 -215 0z m437 -408 c5 -3 36 -9 69
-12 182 -21 459 -108 658 -207 77 -39 210 -114 232 -132 6 -4 47 -34 91 -66
45 -33 94 -70 110 -82 54 -45 250 -244 290 -294 21 -27 42 -52 46 -55 3 -3 41
-57 83 -120 152 -230 289 -554 329 -780 8 -47 8 -49 17 -95 24 -122 32 -431
16 -597 -13 -138 -61 -351 -109 -478 -11 -30 -21 -59 -22 -65 -1 -5 -10 -27
-19 -49 -9 -21 -17 -41 -17 -44 0 -11 -105 -210 -143 -272 -22 -36 -61 -93
-86 -127 l-45 -63 -55 31 c-62 35 -183 113 -221 144 -109 86 -324 331 -508
578 -62 84 -124 166 -137 184 -14 18 -68 66 -120 108 -52 41 -95 81 -95 88 0
10 -44 131 -71 192 -4 11 -33 85 -63 165 -30 80 -60 159 -67 175 -7 17 -13 32
-13 35 -1 3 -10 26 -20 53 -11 26 -16 50 -13 54 12 12 112 -17 181 -53 95 -48
205 -124 304 -208 115 -97 118 -99 147 -92 30 8 49 40 41 72 -6 21 -53 84
-156 209 -33 39 -249 255 -278 278 -46 36 -120 77 -193 109 -64 27 -86 31
-164 32 -74 1 -97 -3 -129 -20 l-39 -21 -95 121 c-86 110 -315 349 -402 420
-95 77 -297 216 -314 216 -3 0 -27 13 -53 28 -109 64 -388 166 -510 187 -24 4
-43 11 -43 15 0 18 223 156 365 225 172 84 379 156 510 179 17 3 46 8 65 12
126 23 247 31 431 29 113 -1 210 -4 215 -7z m-2050 -946 c3 -36 48 -189 96
-322 58 -161 133 -288 278 -470 108 -134 394 -421 530 -530 63 -50 104 -90
103 -99 -8 -54 -28 -131 -35 -131 -7 0 -28 64 -28 86 0 6 -26 10 -65 10 l-65
1 0 -32 c0 -80 68 -175 160 -224 39 -21 65 -42 71 -58 27 -71 147 -213 269
-318 59 -51 253 -199 298 -228 46 -30 85 -29 102 3 19 36 9 57 -66 135 -100
105 -216 260 -259 346 -19 37 -35 72 -35 76 0 5 15 14 33 22 17 8 46 24 64 37
l31 24 127 -60 c69 -33 129 -60 133 -60 3 0 32 25 64 57 l57 56 25 -54 c53
-116 199 -319 317 -439 56 -57 77 -75 263 -224 221 -176 283 -232 476 -425
l156 -156 -52 86 c-63 104 -270 428 -336 523 -26 38 -46 71 -44 74 4 3 69 -41
86 -58 3 -3 30 -25 60 -50 86 -70 284 -234 290 -240 3 -3 40 -35 84 -70 43
-36 94 -79 113 -95 l35 -31 -69 -60 c-282 -250 -593 -413 -953 -501 -209 -51
-322 -62 -565 -58 -184 3 -265 12 -420 44 -114 24 -229 59 -337 102 -293 117
-532 273 -754 494 -194 194 -324 377 -439 620 -55 116 -98 219 -95 227 0 2 -9
30 -20 63 -19 56 -58 210 -65 258 -2 12 -6 40 -10 62 -35 226 -27 553 20 780
54 263 164 531 311 758 39 60 57 75 60 49z m2800 -1098 c-25 -18 -31 -12 -16
16 9 17 15 19 23 10 9 -9 7 -15 -7 -26z m-553 -266 c-2 -4 -15 -2 -28 4 -24
11 -24 12 -9 30 17 17 18 17 29 -4 6 -13 10 -26 8 -30z m-569 -935 c-13 -9
-20 -10 -22 -3 -5 15 32 42 37 28 2 -6 -5 -17 -15 -25z m1388 -80 c43 -29 79
-53 82 -53 2 0 40 -21 83 -47 43 -25 112 -61 153 -80 41 -19 83 -38 92 -43 10
-6 25 -10 33 -10 28 0 21 -12 -70 -115 -31 -36 -62 -65 -67 -65 -6 0 -22 12
-36 28 -14 15 -57 61 -95 102 -39 41 -93 102 -120 135 -27 33 -53 62 -56 65
-10 8 -56 72 -81 114 -26 43 -28 44 82 -31z"/>
</g>
</svg>
