<svg width="70" height="70" viewBox="0 0 70 70" fill="none" xmlns="http://www.w3.org/2000/svg">
<path fill-rule="evenodd" clip-rule="evenodd" d="M35 0C15.67 0 0 15.67 0 35C0 54.33 15.67 70 35 70C54.33 70 70 54.33 70 35C70 15.67 54.33 0 35 0ZM14.7 35.5132C14.7 24.0191 23.791 14.7 35 14.7C46.2107 14.7 55.3 24.0191 55.3 35.5132C55.3 44.7057 49.4908 52.5054 41.43 55.2614C40.3998 55.4661 40.075 54.8157 40.075 54.2624V48.5509C40.075 46.6084 39.4102 45.3422 38.6828 44.697C43.2029 44.1819 47.9514 42.4214 47.9514 34.4274C47.9514 32.1553 47.1648 30.2978 45.8622 28.8408C46.072 28.317 46.7672 26.1993 45.6626 23.3323C45.6626 23.3323 43.9608 22.7738 40.0852 25.4656C38.4628 25.0043 36.7255 24.7736 35 24.7649C33.2745 24.7736 31.5389 25.0043 29.9199 25.4656C26.0409 22.7738 24.3357 23.3323 24.3357 23.3323C23.2328 26.1976 23.928 28.3153 24.1378 28.8408C22.8403 30.2978 22.0469 32.1536 22.0469 34.4274C22.0469 42.4006 26.787 44.1854 31.2953 44.7144C30.7133 45.233 30.1872 46.1522 30.0062 47.4964C28.8474 48.0289 25.909 48.9481 24.0989 45.7672C24.0989 45.7672 23.0264 43.7674 20.9879 43.6217C20.9879 43.6217 19.0053 43.5939 20.8475 44.8861C20.8475 44.8861 22.1789 45.5261 23.1025 47.9317C23.1025 47.9317 24.2782 51.6469 29.925 50.3877V54.2624C29.925 54.8105 29.5968 55.4557 28.5835 55.2632C20.5159 52.5106 14.7 44.7092 14.7 35.5132Z" fill="#F2F2F2"/>
</svg>
