<svg width="70" height="70" viewBox="0 0 70 70" fill="none" xmlns="http://www.w3.org/2000/svg">
<path fill-rule="evenodd" clip-rule="evenodd" d="M35 0C15.67 0 0 15.67 0 35C0 54.33 15.67 70 35 70C54.33 70 70 54.33 70 35C70 15.67 54.33 0 35 0ZM14.7 22.82C14.7 20.587 16.527 18.76 18.76 18.76H51.24C53.473 18.76 55.3 20.587 55.3 22.82V47.18C55.3 49.413 53.473 51.24 51.24 51.24H18.76C16.527 51.24 14.7 49.413 14.7 47.18V22.82ZM47.18 47.18H51.24V22.82H48.804L35 31.346L21.196 22.82H18.76V47.18H22.82V29.316L35 37.03L47.18 29.316V47.18Z" fill="#F2F2F2"/>
</svg>
