<svg width="2709" height="2839" viewBox="0 0 2709 2839" fill="none" xmlns="http://www.w3.org/2000/svg">
<ellipse cx="1354.47" cy="1588.14" rx="1354.47" ry="1250.14" fill="#C4C4C4"/>
<path d="M1776.29 743.02C1723.59 679.109 1781.95 600.208 1859.15 589.604C1832.71 582.534 1772.32 581.968 1742.29 636.265C1712.26 690.562 1752.44 730.059 1776.29 743.02Z" fill="#312E2E" fill-opacity="0.5"/>
<path d="M1939.89 720.397C1956.66 706.964 1956.18 648.103 1932.81 631.316M1859.15 589.604C1781.95 600.208 1723.59 679.109 1776.29 743.02C1752.44 730.059 1712.26 690.562 1742.29 636.265C1772.32 581.968 1832.71 582.534 1859.15 589.604Z" stroke="#4F4F4F"/>
<path d="M1984.26 675.834C1983.98 701.006 1969.89 724.016 1946.58 740.794C1923.28 757.571 1891.01 767.89 1855.3 767.501C1819.59 767.113 1787.56 756.094 1764.63 738.814C1741.7 721.532 1728.11 698.221 1728.39 673.05C1728.66 647.879 1742.75 624.869 1766.06 608.091C1789.36 591.313 1821.63 580.995 1857.34 581.383C1893.05 581.772 1925.08 592.79 1948.01 610.071C1970.94 627.352 1984.53 650.663 1984.26 675.834Z" stroke="#4F4F4F" stroke-width="9"/>
<path d="M1499.53 496.664C1472.86 468.926 1497.08 430.3 1532.45 422.644C1519.96 420.308 1491.97 422.191 1480 448.413C1468.02 474.635 1488.03 491.506 1499.53 496.664Z" fill="#312E2E" fill-opacity="0.5"/>
<path d="M1574.49 480.371C1581.77 473.553 1579.46 446.3 1568.04 439.353M1532.45 422.644C1497.08 430.3 1472.86 468.926 1499.53 496.664C1488.03 491.506 1468.02 474.635 1480 448.413C1491.97 422.191 1519.96 420.308 1532.45 422.644Z" stroke="#4F4F4F"/>
<path d="M1591.04 458.308C1591.75 469.036 1586.52 479.505 1576.76 487.742C1567 495.978 1552.93 501.737 1536.84 502.795C1520.75 503.853 1506.04 499.987 1495.29 493.1C1484.53 486.213 1477.98 476.518 1477.27 465.791C1476.57 455.064 1481.79 444.594 1491.56 436.357C1501.32 428.121 1515.39 422.363 1531.48 421.304C1547.57 420.246 1562.27 424.113 1573.03 430.999C1583.79 437.886 1590.34 447.581 1591.04 458.308Z" stroke="#4F4F4F" stroke-width="9"/>
<path d="M998.266 2217.07C975.004 2190.04 995.622 2152.89 1026.12 2145.77C1015.3 2143.41 991.144 2145.01 981.006 2170.26C970.868 2195.52 988.289 2211.99 998.266 2217.07Z" fill="#312E2E" fill-opacity="0.5"/>
<path d="M1062.89 2201.91C1069.13 2195.38 1066.92 2169.01 1057 2162.2M1026.12 2145.77C995.622 2152.89 975.004 2190.04 998.266 2217.07C988.289 2211.99 970.868 2195.52 981.006 2170.26C991.144 2145.01 1015.3 2143.41 1026.12 2145.77Z" stroke="#4F4F4F"/>
<path d="M1076.4 2180.75C1077.8 2201.67 1058.16 2221.36 1030.53 2223.14C1002.9 2224.92 980.802 2207.92 979.402 2187C978.002 2166.08 997.646 2146.39 1025.27 2144.61C1052.9 2142.83 1075 2159.83 1076.4 2180.75Z" stroke="#4F4F4F" stroke-width="9"/>
<path d="M545.533 2254.29C458.105 2116.78 554.934 1947.03 683.021 1924.21C639.15 1909 538.953 1907.78 489.128 2024.6C439.304 2141.42 505.971 2226.4 545.533 2254.29Z" fill="#312E2E" fill-opacity="0.5"/>
<path d="M816.983 2205.62C844.794 2176.71 844.011 2050.07 805.232 2013.96M683.021 1924.21C554.934 1947.03 458.105 2116.78 545.533 2254.29C505.971 2226.4 439.304 2141.42 489.128 2024.6C538.953 1907.78 639.15 1909 683.021 1924.21Z" stroke="#4F4F4F"/>
<path d="M887.554 2109.7C886.63 2219.37 792.657 2307.78 676.642 2306.14C560.626 2304.51 468.164 2213.47 469.087 2103.79C470.011 1994.11 563.985 1905.71 680 1907.34C796.015 1908.98 888.478 2000.02 887.554 2109.7Z" stroke="#4F4F4F" stroke-width="21"/>
<circle cx="1582.39" cy="1631.67" r="702.333" transform="rotate(-116.445 1582.39 1631.67)" fill="#C7C7C7"/>
<path fill-rule="evenodd" clip-rule="evenodd" d="M892.58 1499.46C1001.06 1564.44 1106.57 1680.92 1181.3 1831.17C1256.03 1981.42 1285.26 2135.83 1271.63 2261.55C1138.38 2195.93 1024.8 2087.7 953.55 1944.44C882.3 1801.19 864.514 1645.31 892.58 1499.46Z" fill="#A1A1A1"/>
<path fill-rule="evenodd" clip-rule="evenodd" d="M1788.26 2303.27C1740.63 2165.41 1764.17 1964.69 1863.54 1772.02C1961.55 1581.97 2108.73 1447.49 2247.02 1404.4C2359.76 1732.72 2214.4 2101.74 1895.17 2260.52C1860.17 2277.92 1824.43 2292.13 1788.26 2303.27Z" fill="#A1A1A1"/>
<path fill-rule="evenodd" clip-rule="evenodd" d="M1918.21 1015.44C1723.71 909.514 1482.32 897.036 1268.97 1003.15C1156.61 1059.04 1065.8 1140.96 1000.19 1237.99C1127.7 1309.72 1330.67 1321.5 1538.78 1256.28C1703.23 1204.75 1837.6 1115.57 1918.21 1015.44Z" fill="#A1A1A1"/>
<path d="M1921.55 1532.27C1944.83 1447.09 2049.43 1449.24 2106.12 1509.84C2096.03 1482.49 2059.4 1429.64 1993.64 1436.96C1927.88 1444.29 1918.18 1503.55 1921.55 1532.27Z" fill="#312E2E" fill-opacity="0.5"/>
<path d="M2041.83 1660.59C2063.84 1666.89 2114.82 1630.23 2115.07 1599.57M2106.12 1509.84C2049.43 1449.24 1944.83 1447.09 1921.55 1532.27C1918.18 1503.55 1927.88 1444.29 1993.64 1436.96C2059.4 1429.64 2096.03 1482.49 2106.12 1509.84Z" stroke="#4F4F4F"/>
<path d="M2106.66 1669.9C2085.28 1684.68 2057.33 1686.64 2028.88 1676.88C2000.44 1667.12 1971.98 1645.74 1950.61 1614.8C1929.24 1583.86 1919.31 1549.68 1920.25 1519.62C1921.19 1489.55 1932.92 1464.12 1954.3 1449.34C1975.69 1434.57 2003.63 1432.6 2032.08 1442.36C2060.53 1452.12 2088.99 1473.51 2110.36 1504.45C2131.73 1535.39 2141.66 1569.57 2140.72 1599.63C2139.78 1629.69 2128.05 1655.13 2106.66 1669.9Z" stroke="#4F4F4F" stroke-width="14"/>
<path d="M1245.73 2208.42C1229.73 2190.86 1244.1 2166.57 1265.2 2161.84C1257.73 2160.33 1241.02 2161.45 1233.94 2177.95C1226.85 2194.45 1238.85 2205.14 1245.73 2208.42Z" fill="#312E2E" fill-opacity="0.5"/>
<path d="M1290.46 2198.34C1294.79 2194.06 1293.34 2176.87 1286.51 2172.46M1265.2 2161.84C1244.1 2166.57 1229.73 2190.86 1245.73 2208.42C1238.85 2205.14 1226.85 2194.45 1233.94 2177.95C1241.02 2161.45 1257.73 2160.33 1265.2 2161.84Z" stroke="#4F4F4F"/>
<path d="M1298.48 2184.59C1299.3 2196.88 1286.79 2209.49 1267.92 2210.72C1249.04 2211.95 1234.98 2201.07 1234.16 2188.78C1233.35 2176.49 1245.85 2163.88 1264.73 2162.65C1283.6 2161.42 1297.67 2172.3 1298.48 2184.59Z" stroke="#4F4F4F" stroke-width="9"/>
<path d="M1110.96 2029.39C1087.69 2002.37 1108.31 1965.22 1138.81 1958.1C1127.99 1955.74 1103.83 1957.34 1093.7 1982.59C1083.56 2007.85 1100.98 2024.32 1110.96 2029.39Z" fill="#312E2E" fill-opacity="0.5"/>
<path d="M1175.58 2014.24C1181.82 2007.7 1179.61 1981.34 1169.69 1974.53M1138.81 1958.1C1108.31 1965.22 1087.69 2002.37 1110.96 2029.39C1100.98 2024.32 1083.56 2007.85 1093.7 1982.59C1103.83 1957.34 1127.99 1955.74 1138.81 1958.1Z" stroke="#4F4F4F"/>
<path d="M1189.09 1993.08C1190.49 2014 1170.85 2033.69 1143.22 2035.47C1115.59 2037.25 1093.49 2020.25 1092.09 1999.33C1090.69 1978.41 1110.34 1958.72 1137.96 1956.94C1165.59 1955.16 1187.69 1972.16 1189.09 1993.08Z" stroke="#4F4F4F" stroke-width="9"/>
<path opacity="0.95" fill-rule="evenodd" clip-rule="evenodd" d="M1906.36 446.144L693.001 2679.31C279.47 2465.31 0 2056.84 0 1588.14C0 897.705 606.415 338 1354.47 338C1551.02 338 1737.8 376.642 1906.36 446.144Z" fill="#4F4F4F"/>
<path d="M1014.39 871.42C1043.99 928.218 1040.25 996.973 1007.95 1063.18C975.655 1129.38 915.16 1191.97 833.676 1234.42C752.192 1276.88 666.234 1290.6 593.468 1279.15C520.696 1267.69 462.201 1231.36 432.604 1174.56C403.006 1117.76 406.743 1049.01 439.044 982.8C471.343 916.598 531.838 854.012 613.322 811.555C694.806 769.098 780.764 755.375 853.53 766.833C926.302 778.293 984.797 814.621 1014.39 871.42Z" stroke="#4F4F4F" stroke-width="31"/>
<path d="M2178.81 2397.02C2124.67 2458.55 2068.61 2507.44 2022.01 2536.85C1998.64 2551.59 1978.25 2561.06 1962.07 2565.04C1945.47 2569.13 1936.22 2566.82 1931.53 2562.69C1926.83 2558.56 1923.37 2549.68 1925.31 2532.7C1927.2 2516.14 1934 2494.71 1945.65 2469.65C1968.89 2419.69 2010.25 2357.87 2064.39 2296.34C2118.52 2234.82 2174.58 2185.93 2221.18 2156.52C2244.55 2141.77 2264.94 2132.31 2281.12 2128.32C2297.72 2124.24 2306.97 2126.55 2311.66 2130.68C2316.36 2134.81 2319.82 2143.69 2317.88 2160.67C2315.99 2177.23 2309.2 2198.66 2297.54 2223.71C2274.3 2273.67 2232.94 2335.5 2178.81 2397.02Z" fill="#C4C4C4" stroke="#4F4F4F" stroke-width="24"/>
<path d="M2479.15 1768.53C2466.45 1818.36 2449.07 1861.69 2431.4 1891.46C2422.54 1906.38 2413.82 1917.54 2405.86 1924.43C2397.71 1931.48 2391.71 1932.96 2387.66 1931.93C2383.61 1930.9 2379.05 1926.73 2375.27 1916.63C2371.58 1906.77 2369.26 1892.8 2368.62 1875.46C2367.35 1840.87 2372.83 1794.5 2385.53 1744.67C2398.23 1694.84 2415.61 1651.5 2433.28 1621.74C2442.14 1606.81 2450.86 1595.66 2458.82 1588.77C2466.97 1581.71 2472.97 1580.23 2477.02 1581.26C2481.07 1582.29 2485.63 1586.47 2489.41 1596.56C2493.1 1606.42 2495.42 1620.39 2496.06 1637.73C2497.33 1672.32 2491.85 1718.7 2479.15 1768.53Z" fill="#C4C4C4" stroke="#4F4F4F" stroke-width="14"/>
<path d="M2094.13 160.971C2106.11 154.779 2130.72 149.033 2140.58 150.777C2144.42 156.427 2152.02 169.185 2151.79 175.028C2151.55 180.87 2131.86 191.853 2122.04 196.613C2120.43 197.059 2084.76 204.367 2067.72 211.937C2062.97 212.452 2043.81 223.995 2035.62 233.225C2036.54 225.127 2062 206.303 2072.71 200.275C2069.33 198.261 2030.57 211.96 2012.72 220.598C2003.03 221.757 2091.74 180.06 2081.41 182.418C2072.79 184.388 2042.01 189.617 2027.31 191.463C2031.58 190.743 2051.13 182.907 2059.63 178.759C2067.25 175.508 2085.51 165.421 2094.13 160.971Z" fill="#DA0300"/>
<path d="M2099.63 194.77L2099.63 194.77L2099.64 194.763C2106.76 190.694 2114.9 188.487 2122.35 186.812C2123.96 186.449 2125.56 186.107 2127.11 185.776C2129.09 185.353 2130.99 184.947 2132.74 184.536C2135.85 183.802 2138.63 183.018 2140.77 182.003C2143.63 180.652 2147.6 177.841 2149.89 175.266L2150.02 175.119L2150.08 174.934C2150.58 173.526 2150.49 171.81 2150.12 170.103C2149.74 168.374 2149.03 166.537 2148.16 164.817C2147.29 163.096 2146.24 161.461 2145.15 160.138C2144.08 158.84 2142.89 157.749 2141.71 157.246C2139.38 156.249 2136.27 156.133 2133.03 156.443C2129.77 156.756 2126.24 157.519 2122.98 158.402C2119.72 159.286 2116.71 160.297 2114.48 161.117C2113.37 161.527 2112.44 161.891 2111.77 162.169C2111.44 162.308 2111.16 162.428 2110.96 162.523C2110.86 162.57 2110.76 162.615 2110.69 162.655L2110.68 162.658C2110.65 162.675 2110.58 162.712 2110.5 162.764C2110.49 162.771 2110.47 162.781 2110.44 162.793C2110.35 162.834 2110.21 162.893 2110.03 162.97C2109.68 163.122 2109.17 163.332 2108.53 163.59C2107.37 164.062 2105.81 164.69 2104.02 165.409L2103.5 165.617C2099.49 167.228 2094.48 169.246 2090.35 170.979C2088.28 171.845 2086.43 172.643 2085.03 173.287C2084.33 173.608 2083.73 173.896 2083.28 174.137C2083.05 174.257 2082.84 174.371 2082.67 174.476C2082.52 174.571 2082.34 174.695 2082.19 174.839C2082.13 174.9 2081.98 175.057 2081.9 175.298C2081.85 175.435 2081.81 175.636 2081.86 175.868C2081.92 176.11 2082.05 176.299 2082.19 176.428C2082.44 176.645 2082.72 176.685 2082.81 176.697C2082.93 176.714 2083.05 176.712 2083.15 176.706C2083.51 176.686 2084.05 176.578 2084.73 176.411C2086.15 176.067 2088.48 175.393 2091.95 174.312C2098.87 172.157 2103.91 170.86 2107.57 170.152C2111.24 169.441 2113.46 169.342 2114.77 169.526C2116.05 169.704 2116.28 170.109 2116.36 170.286C2116.42 170.43 2116.46 170.614 2116.47 170.874C2116.47 170.985 2116.47 171.093 2116.48 171.216C2116.48 171.239 2116.48 171.262 2116.48 171.286C2116.48 171.395 2116.48 171.522 2116.49 171.652C2116.46 171.687 2116.42 171.745 2116.34 171.829C2116.1 172.063 2115.71 172.36 2115.13 172.713C2113.99 173.415 2112.31 174.228 2110.25 175.115C2106.15 176.884 2100.74 178.877 2095.56 180.781L2095.44 180.826C2090.33 182.705 2085.45 184.5 2082.41 185.879C2081.64 186.228 2080.97 186.558 2080.43 186.864C2079.92 187.154 2079.44 187.475 2079.13 187.824C2078.98 187.994 2078.77 188.289 2078.73 188.687C2078.69 189.172 2078.92 189.557 2079.21 189.792C2079.46 189.993 2079.75 190.096 2079.99 190.157C2080.25 190.222 2080.54 190.264 2080.86 190.29C2084.25 190.571 2088.66 189.695 2093.33 188.331C2098.02 186.958 2103.08 185.054 2107.81 183.192C2109.34 182.586 2110.84 181.987 2112.28 181.411C2115.29 180.206 2118.04 179.105 2120.35 178.27C2122.06 177.653 2123.48 177.198 2124.54 176.957C2124.8 176.899 2125.03 176.856 2125.23 176.825C2124.92 177.218 2124.44 177.661 2123.81 178.141C2122.48 179.141 2120.63 180.186 2118.64 181.169C2114.66 183.132 2110.29 184.76 2108.87 185.204C2108.4 185.354 2107.63 185.757 2106.76 186.248C2105.86 186.758 2104.76 187.423 2103.59 188.162C2101.23 189.639 2098.53 191.43 2096.43 192.913C2095.38 193.653 2094.46 194.326 2093.81 194.849C2093.49 195.108 2093.2 195.347 2093 195.55C2092.9 195.648 2092.79 195.764 2092.7 195.889C2092.66 195.951 2092.6 196.044 2092.55 196.161C2092.51 196.262 2092.43 196.493 2092.48 196.783C2092.55 197.143 2092.79 197.403 2093.06 197.533C2093.27 197.639 2093.48 197.645 2093.57 197.643C2093.77 197.639 2093.97 197.587 2094.09 197.547C2094.38 197.459 2094.76 197.299 2095.22 197.083C2096.16 196.643 2097.6 195.894 2099.63 194.77ZM2110.52 162.753C2110.52 162.753 2110.52 162.753 2110.52 162.753C2110.54 162.742 2110.55 162.741 2110.52 162.753Z" fill="#D9D600" stroke="#DB8F02" stroke-width="2"/>
<path d="M2147.92 132.644L2169 185.229L2156.2 185.408L2138.3 141.31L2147.92 132.644ZM2282.13 144.107C2249.42 174.03 2204.71 180.938 2175.32 184.885L2152.62 128.233C2164.76 116.075 2184.71 104.46 2205.15 95.9018C2225.35 87.4435 2245.42 82.225 2258.26 82.2103L2282.13 144.107Z" fill="#C4C4C4" stroke="black" stroke-width="6"/>
<path d="M2107.92 123.196C2107.91 123.201 2107.91 123.202 2107.92 123.201L2108.68 126.08C2108.63 126.088 2108.57 126.096 2108.51 126.102L2108.51 126.103C2108.44 126.111 2108.1 126.147 2107.68 126.074C2107.49 126.04 2106.94 125.929 2106.38 125.507C2105.67 124.964 2105.15 124.048 2105.2 122.972C2105.24 122.139 2105.62 121.576 2105.75 121.382C2105.93 121.14 2106.1 120.978 2106.18 120.9C2106.24 120.848 2106.29 120.802 2106.34 120.763L2107.92 123.196ZM2107.92 123.196L2107.7 122.362L2106.56 120.608C2106.53 120.629 2106.45 120.682 2106.34 120.763L2107.92 123.196ZM2108.06 123.16L2108.17 123.58L2108.17 123.58L2108.82 126.053C2108.82 126.053 2108.82 126.053 2108.82 126.053L2108.17 123.582L2108.17 123.582L2108.06 123.173L2108.06 123.16ZM2108.06 123.16L2108.06 123.171L2108.06 123.16M2108.06 123.16L2108.06 123.16M2108.06 123.16L2108.08 123.23L2108.22 123.658L2108.22 123.658L2108.85 125.604L2108.98 126.013C2108.98 126.013 2108.98 126.013 2108.98 126.013L2108.85 125.594L2108.22 123.66L2108.22 123.66L2108.06 123.16ZM2174.87 110.776C2174.87 110.776 2174.87 110.775 2172.76 108.648L2174.87 110.775L2176.84 108.822L2175.05 106.709C2173.22 104.551 2170.96 102.338 2166.94 101.054C2163.08 99.8207 2157.87 99.5288 2150.24 100.43C2143.74 101.198 2135 104.853 2126.99 108.867C2118.86 112.936 2111.06 117.59 2106.29 120.678C2106.24 120.712 2106.08 120.813 2105.91 120.97C2105.82 121.047 2105.66 121.205 2105.49 121.44C2105.35 121.627 2104.98 122.172 2104.92 122.984C2104.85 124.037 2105.33 124.977 2106.05 125.553C2106.62 125.999 2107.18 126.117 2107.38 126.153C2107.81 126.231 2108.15 126.194 2108.23 126.186L2108.23 126.185C2108.44 126.164 2108.6 126.124 2108.63 126.116L2108.64 126.115C2108.7 126.1 2108.75 126.087 2108.77 126.079C2108.82 126.067 2108.86 126.053 2108.9 126.041L2108.96 126.025L2109.21 125.96L2109.44 125.855C2113.85 123.847 2124.71 119.919 2135.03 118.046C2140.21 117.106 2145.01 116.729 2148.73 117.247C2152.5 117.773 2154.35 119.08 2155.05 120.754L2156.17 123.411L2158.87 122.4C2162.54 121.025 2166.61 117.994 2169.57 115.542C2171.1 114.278 2172.42 113.094 2173.35 112.225C2173.82 111.79 2174.2 111.432 2174.46 111.181C2174.59 111.056 2174.69 110.957 2174.76 110.888L2174.84 110.808L2174.86 110.785L2174.87 110.779L2174.87 110.777L2174.87 110.776ZM2109.55 125.715L2109.55 125.715L2109.55 125.715Z" fill="#FF0000" stroke="black" stroke-width="6"/>
<path d="M2151.45 221.545L2151.87 222.228L2152.36 223.444C2152.42 223.422 2152.47 223.4 2152.53 223.377L2152.53 223.382C2152.52 223.39 2152.51 223.395 2152.51 223.395C2152.51 223.394 2152.52 223.389 2152.54 223.378L2149.55 218.188M2151.45 221.545L2151.94 223.58C2151.9 223.589 2151.8 223.611 2151.67 223.63C2151.67 223.63 2151.67 223.63 2151.67 223.63C2151.61 223.639 2151.54 223.647 2151.46 223.653C2151.35 223.661 2151.11 223.672 2150.82 223.63C2150.58 223.596 2149.92 223.477 2149.29 222.932C2148.47 222.228 2148.17 221.221 2148.27 220.329C2148.34 219.635 2148.64 219.161 2148.75 218.995C2148.99 218.644 2149.25 218.426 2149.3 218.38L2149.31 218.376C2149.35 218.336 2149.4 218.301 2149.44 218.271M2151.45 221.545L2151 220.81M2151.45 221.545L2151.37 221.204L2151 220.81M2149.44 218.271L2149.43 218.255L2149.55 218.18L2149.55 218.188M2149.44 218.271L2151 220.806C2150.99 220.81 2150.99 220.812 2151 220.81M2149.44 218.271L2151 220.81M2149.55 218.188C2149.55 218.187 2149.55 218.187 2149.55 218.187L2150.89 220.364L2150.89 220.366L2149.55 218.188ZM2206.19 180.925C2206.19 180.925 2206.19 180.925 2206.27 183.924L2206.19 180.925L2208.96 180.852L2209.26 183.606C2209.56 186.419 2209.6 189.58 2207.76 193.374C2205.99 197.02 2202.6 200.994 2196.68 205.894C2191.64 210.07 2182.96 213.87 2174.53 216.901C2165.97 219.974 2157.22 222.407 2151.7 223.728L2151.7 223.728C2151.64 223.742 2151.46 223.784 2151.22 223.802C2151.11 223.811 2150.88 223.823 2150.59 223.784C2150.36 223.752 2149.71 223.643 2149.08 223.125C2148.27 222.454 2147.92 221.46 2148.01 220.536C2148.07 219.82 2148.37 219.331 2148.49 219.16C2148.73 218.798 2148.99 218.573 2149.05 218.526L2149.05 218.522C2149.21 218.383 2149.36 218.292 2149.38 218.277C2149.43 218.244 2149.48 218.218 2149.5 218.203C2149.54 218.181 2149.58 218.157 2149.62 218.138L2149.67 218.106L2149.89 217.973L2150.12 217.878C2154.62 216.066 2164.96 210.922 2173.43 204.746C2177.69 201.647 2181.28 198.427 2183.47 195.382C2185.69 192.287 2186.02 190.049 2185.29 188.385L2184.14 185.742L2186.74 184.485C2190.27 182.777 2195.27 181.923 2199.09 181.473C2201.05 181.241 2202.82 181.105 2204.1 181.026C2204.73 180.987 2205.25 180.962 2205.61 180.947C2205.79 180.939 2205.94 180.934 2206.03 180.93L2206.15 180.927L2206.18 180.926L2206.19 180.926L2206.19 180.925L2206.19 180.925ZM2150.89 220.364L2150.89 220.366L2151.12 220.735L2151.12 220.735L2151.12 220.726L2151.11 220.725L2150.89 220.364Z" fill="#FF0000" stroke="black" stroke-width="6"/>
<rect x="2189.91" y="141.089" width="9.25245" height="84.6575" transform="rotate(67.5856 2189.91 141.089)" fill="#FF0000" stroke="black" stroke-width="6"/>
<path d="M2212.76 120.808C2208.51 130.738 2213.67 142.148 2223.79 146.478C2233.91 150.809 2245.72 146.659 2249.97 136.729C2254.22 126.799 2249.06 115.39 2238.94 111.059C2228.82 106.729 2217.01 110.879 2212.76 120.808Z" fill="#7ED9ED"/>
<path d="M2212.76 120.808C2208.51 130.738 2213.67 142.148 2223.79 146.478C2233.91 150.809 2245.72 146.659 2249.97 136.729C2254.22 126.799 2249.06 115.39 2238.94 111.059C2228.82 106.729 2217.01 110.879 2212.76 120.808Z" fill="url(#paint0_linear)"/>
<path d="M2212.76 120.808C2208.51 130.738 2213.67 142.148 2223.79 146.478C2233.91 150.809 2245.72 146.659 2249.97 136.729C2254.22 126.799 2249.06 115.39 2238.94 111.059C2228.82 106.729 2217.01 110.879 2212.76 120.808Z" stroke="black" stroke-width="6"/>
<path d="M2304.25 118.355C2298.74 126.575 2292.44 134.37 2286.78 139.846L2262.65 82.3478C2270.19 82.5 2280.39 83.6081 2290.32 85.4782C2296.31 86.6058 2302.13 87.9975 2307.15 89.5936C2311.17 90.8734 2314.55 92.2458 2317.07 93.6507C2314.97 100.482 2310.18 109.501 2304.25 118.355Z" fill="#FF0000" stroke="black" stroke-width="6"/>
<ellipse cx="2307.28" cy="105.073" rx="2.41359" ry="11.145" transform="rotate(29.4237 2307.28 105.073)" fill="#DCDCDC"/>
<rect x="2305.05" y="1011.38" width="22.512" height="59.6701" transform="rotate(58.707 2305.05 1011.38)" fill="#E4E2E2"/>
<rect x="2334.17" y="1120.4" width="5.81748" height="30.1784" transform="rotate(58.707 2334.17 1120.4)" fill="#E4E2E2"/>
<rect x="2249.84" y="1035.42" width="142.894" height="47.4711" transform="rotate(58.707 2249.84 1035.42)" fill="#E4E2E2"/>
<rect x="2249.45" y="1013.68" width="180.448" height="21.9157" rx="10.9578" transform="rotate(58.707 2249.45 1013.68)" fill="#F7F4F4"/>
<ellipse cx="2218.63" cy="1075.47" rx="23.8108" ry="24.5915" transform="rotate(58.707 2218.63 1075.47)" fill="#4F4F4F"/>
<ellipse cx="2216.33" cy="1071.7" rx="11.256" ry="12.9877" transform="rotate(58.707 2216.33 1071.7)" fill="#C4C4C4"/>
<ellipse cx="2246.37" cy="1122.48" rx="23.6708" ry="24.4469" transform="rotate(58.707 2246.37 1122.48)" fill="#4F4F4F"/>
<ellipse cx="2246.37" cy="1122.48" rx="11.1898" ry="12.9113" transform="rotate(58.707 2246.37 1122.48)" fill="#C4C4C4"/>
<ellipse cx="2274.64" cy="1168.99" rx="23.6708" ry="24.4469" transform="rotate(58.707 2274.64 1168.99)" fill="#4F4F4F"/>
<ellipse cx="2274.64" cy="1168.99" rx="11.1898" ry="12.9113" transform="rotate(58.707 2274.64 1168.99)" fill="#C4C4C4"/>
<rect x="2311.11" y="979.869" width="67.3202" height="28.7567" rx="14.3783" transform="rotate(58.707 2311.11 979.869)" fill="#F7F4F4"/>
<ellipse cx="2325.9" cy="1031.85" rx="5.37063" ry="7.17788" transform="rotate(58.707 2325.9 1031.85)" fill="#4F4F4F"/>
<ellipse cx="2327.23" cy="1028.66" rx="1.08953" ry="1.02543" transform="rotate(58.707 2327.23 1028.66)" fill="#C4C4C4"/>
<rect x="2311.36" y="986.449" width="31.4408" height="3.98704" rx="1.99352" transform="rotate(58.707 2311.36 986.449)" fill="white"/>
<rect x="2313.23" y="989.98" width="14.2052" height="3.98704" rx="1.99352" transform="rotate(148.707 2313.23 989.98)" fill="white"/>
<ellipse cx="2338.31" cy="1121.36" rx="7.6355" ry="7.22646" transform="rotate(58.707 2338.31 1121.36)" fill="#C4C4C4"/>
<ellipse cx="2337.16" cy="1119.47" rx="5.42149" ry="5.13106" transform="rotate(58.707 2337.16 1119.47)" fill="#F7F4F4"/>
<defs>
<linearGradient id="paint0_linear" x1="2242.61" y1="146.314" x2="2218.2" y2="115.709" gradientUnits="userSpaceOnUse">
<stop stop-color="#7ED9ED"/>
<stop offset="0.5625" stop-color="white"/>
<stop offset="1" stop-color="#7ED9ED"/>
</linearGradient>
</defs>
</svg>
