<svg width="2710" height="2816" viewBox="0 0 2710 2816" fill="none" xmlns="http://www.w3.org/2000/svg">
<ellipse cx="1354.47" cy="1565.14" rx="1354.47" ry="1250.14" fill="#C4C4C4"/>
<path d="M1776.29 720.02C1723.59 656.109 1781.95 577.208 1859.15 566.604C1832.71 559.534 1772.32 558.968 1742.29 613.265C1712.26 667.562 1752.44 707.059 1776.29 720.02Z" fill="#312E2E" fill-opacity="0.5"/>
<path d="M1939.89 697.397C1956.66 683.964 1956.18 625.103 1932.81 608.316M1859.15 566.604C1781.95 577.208 1723.59 656.109 1776.29 720.02C1752.44 707.059 1712.26 667.562 1742.29 613.265C1772.32 558.968 1832.71 559.534 1859.15 566.604Z" stroke="#4F4F4F"/>
<path d="M1984.26 652.834C1983.98 678.006 1969.89 701.016 1946.58 717.794C1923.28 734.571 1891.01 744.89 1855.3 744.501C1819.59 744.113 1787.56 733.094 1764.63 715.814C1741.7 698.532 1728.11 675.221 1728.39 650.05C1728.66 624.879 1742.75 601.869 1766.06 585.091C1789.36 568.313 1821.63 557.995 1857.34 558.383C1893.05 558.772 1925.08 569.79 1948.01 587.071C1970.94 604.352 1984.53 627.663 1984.26 652.834Z" stroke="#4F4F4F" stroke-width="9"/>
<path d="M1499.53 473.664C1472.86 445.926 1497.08 407.3 1532.45 399.644C1519.96 397.308 1491.97 399.191 1480 425.413C1468.02 451.635 1488.03 468.506 1499.53 473.664Z" fill="#312E2E" fill-opacity="0.5"/>
<path d="M1574.49 457.371C1581.77 450.553 1579.46 423.3 1568.04 416.353M1532.45 399.644C1497.08 407.3 1472.86 445.926 1499.53 473.664C1488.03 468.506 1468.02 451.635 1480 425.413C1491.97 399.191 1519.96 397.308 1532.45 399.644Z" stroke="#4F4F4F"/>
<path d="M1591.04 435.308C1591.75 446.036 1586.52 456.505 1576.76 464.742C1567 472.978 1552.93 478.737 1536.84 479.795C1520.75 480.853 1506.04 476.987 1495.29 470.1C1484.53 463.213 1477.98 453.518 1477.27 442.791C1476.57 432.064 1481.79 421.594 1491.56 413.357C1501.32 405.121 1515.39 399.363 1531.48 398.304C1547.57 397.246 1562.27 401.113 1573.03 407.999C1583.79 414.886 1590.34 424.581 1591.04 435.308Z" stroke="#4F4F4F" stroke-width="9"/>
<path d="M998.266 2194.07C975.004 2167.04 995.622 2129.89 1026.12 2122.77C1015.3 2120.41 991.144 2122.01 981.006 2147.26C970.868 2172.52 988.289 2188.99 998.266 2194.07Z" fill="#312E2E" fill-opacity="0.5"/>
<path d="M1062.89 2178.91C1069.13 2172.38 1066.92 2146.01 1057 2139.2M1026.12 2122.77C995.622 2129.89 975.004 2167.04 998.266 2194.07C988.289 2188.99 970.868 2172.52 981.006 2147.26C991.144 2122.01 1015.3 2120.41 1026.12 2122.77Z" stroke="#4F4F4F"/>
<path d="M1076.4 2157.75C1077.8 2178.67 1058.16 2198.36 1030.53 2200.14C1002.9 2201.92 980.802 2184.92 979.402 2164C978.002 2143.08 997.646 2123.39 1025.27 2121.61C1052.9 2119.83 1075 2136.83 1076.4 2157.75Z" stroke="#4F4F4F" stroke-width="9"/>
<path d="M545.533 2231.29C458.105 2093.78 554.934 1924.03 683.021 1901.21C639.15 1886 538.953 1884.78 489.128 2001.6C439.304 2118.42 505.971 2203.4 545.533 2231.29Z" fill="#312E2E" fill-opacity="0.5"/>
<path d="M816.983 2182.62C844.794 2153.71 844.011 2027.07 805.232 1990.96M683.021 1901.21C554.934 1924.03 458.105 2093.78 545.533 2231.29C505.971 2203.4 439.304 2118.42 489.128 2001.6C538.953 1884.78 639.15 1886 683.021 1901.21Z" stroke="#4F4F4F"/>
<path d="M887.554 2086.7C886.63 2196.37 792.657 2284.78 676.642 2283.14C560.626 2281.51 468.164 2190.47 469.087 2080.79C470.011 1971.11 563.985 1882.71 680 1884.34C796.015 1885.98 888.478 1977.02 887.554 2086.7Z" stroke="#4F4F4F" stroke-width="21"/>
<circle cx="1582.39" cy="1608.67" r="702.333" transform="rotate(-116.445 1582.39 1608.67)" fill="#C7C7C7"/>
<path fill-rule="evenodd" clip-rule="evenodd" d="M892.58 1476.46C1001.06 1541.44 1106.57 1657.92 1181.3 1808.17C1256.03 1958.42 1285.26 2112.83 1271.63 2238.55C1138.38 2172.93 1024.8 2064.7 953.55 1921.44C882.3 1778.19 864.514 1622.31 892.58 1476.46Z" fill="#A1A1A1"/>
<path fill-rule="evenodd" clip-rule="evenodd" d="M1788.26 2280.27C1740.63 2142.41 1764.17 1941.69 1863.54 1749.02C1961.55 1558.97 2108.73 1424.49 2247.02 1381.4C2359.76 1709.72 2214.4 2078.74 1895.17 2237.52C1860.17 2254.92 1824.43 2269.13 1788.26 2280.27Z" fill="#A1A1A1"/>
<path fill-rule="evenodd" clip-rule="evenodd" d="M1918.21 992.443C1723.71 886.514 1482.32 874.036 1268.97 980.154C1156.61 1036.04 1065.8 1117.96 1000.19 1214.99C1127.7 1286.72 1330.67 1298.5 1538.78 1233.28C1703.23 1181.75 1837.6 1092.57 1918.21 992.443Z" fill="#A1A1A1"/>
<path d="M1921.55 1509.27C1944.83 1424.09 2049.43 1426.24 2106.12 1486.84C2096.03 1459.49 2059.4 1406.64 1993.64 1413.96C1927.88 1421.29 1918.18 1480.55 1921.55 1509.27Z" fill="#312E2E" fill-opacity="0.5"/>
<path d="M2041.83 1637.59C2063.84 1643.89 2114.82 1607.23 2115.07 1576.57M2106.12 1486.84C2049.43 1426.24 1944.83 1424.09 1921.55 1509.27C1918.18 1480.55 1927.88 1421.29 1993.64 1413.96C2059.4 1406.64 2096.03 1459.49 2106.12 1486.84Z" stroke="#4F4F4F"/>
<path d="M2106.66 1646.9C2085.28 1661.68 2057.33 1663.64 2028.88 1653.88C2000.44 1644.12 1971.98 1622.74 1950.61 1591.8C1929.24 1560.86 1919.31 1526.68 1920.25 1496.62C1921.19 1466.55 1932.92 1441.12 1954.3 1426.34C1975.69 1411.57 2003.63 1409.6 2032.08 1419.36C2060.53 1429.12 2088.99 1450.51 2110.36 1481.45C2131.73 1512.39 2141.66 1546.57 2140.72 1576.63C2139.78 1606.69 2128.05 1632.13 2106.66 1646.9Z" stroke="#4F4F4F" stroke-width="14"/>
<path d="M1245.73 2185.42C1229.73 2167.86 1244.1 2143.57 1265.2 2138.84C1257.73 2137.33 1241.02 2138.45 1233.94 2154.95C1226.85 2171.45 1238.85 2182.14 1245.73 2185.42Z" fill="#312E2E" fill-opacity="0.5"/>
<path d="M1290.46 2175.34C1294.79 2171.06 1293.34 2153.87 1286.51 2149.46M1265.2 2138.84C1244.1 2143.57 1229.73 2167.86 1245.73 2185.42C1238.85 2182.14 1226.85 2171.45 1233.94 2154.95C1241.02 2138.45 1257.73 2137.33 1265.2 2138.84Z" stroke="#4F4F4F"/>
<path d="M1298.48 2161.59C1299.3 2173.88 1286.79 2186.49 1267.92 2187.72C1249.04 2188.95 1234.98 2178.07 1234.16 2165.78C1233.35 2153.49 1245.85 2140.88 1264.73 2139.65C1283.6 2138.42 1297.67 2149.3 1298.48 2161.59Z" stroke="#4F4F4F" stroke-width="9"/>
<path d="M1110.96 2006.39C1087.69 1979.37 1108.31 1942.22 1138.81 1935.1C1127.99 1932.74 1103.83 1934.34 1093.7 1959.59C1083.56 1984.85 1100.98 2001.32 1110.96 2006.39Z" fill="#312E2E" fill-opacity="0.5"/>
<path d="M1175.58 1991.24C1181.82 1984.7 1179.61 1958.34 1169.69 1951.53M1138.81 1935.1C1108.31 1942.22 1087.69 1979.37 1110.96 2006.39C1100.98 2001.32 1083.56 1984.85 1093.7 1959.59C1103.83 1934.34 1127.99 1932.74 1138.81 1935.1Z" stroke="#4F4F4F"/>
<path d="M1189.09 1970.08C1190.49 1991 1170.85 2010.69 1143.22 2012.47C1115.59 2014.25 1093.49 1997.25 1092.09 1976.33C1090.69 1955.41 1110.34 1935.72 1137.96 1933.94C1165.59 1932.16 1187.69 1949.16 1189.09 1970.08Z" stroke="#4F4F4F" stroke-width="9"/>
<path opacity="0.95" fill-rule="evenodd" clip-rule="evenodd" d="M1906.36 423.144L693.001 2656.31C279.47 2442.31 0 2033.84 0 1565.14C0 874.705 606.415 315 1354.47 315C1551.02 315 1737.8 353.642 1906.36 423.144Z" fill="#4F4F4F"/>
<path d="M1014.39 848.42C1043.99 905.218 1040.25 973.973 1007.95 1040.18C975.655 1106.38 915.16 1168.97 833.676 1211.42C752.192 1253.88 666.234 1267.6 593.468 1256.15C520.696 1244.69 462.201 1208.36 432.604 1151.56C403.006 1094.76 406.744 1026.01 439.044 959.8C471.343 893.598 531.838 831.012 613.322 788.555C694.806 746.098 780.764 732.375 853.53 743.833C926.302 755.293 984.797 791.621 1014.39 848.42Z" stroke="#4F4F4F" stroke-width="31"/>
<path d="M2178.81 2374.02C2124.67 2435.55 2068.61 2484.44 2022.01 2513.85C1998.64 2528.59 1978.25 2538.06 1962.07 2542.04C1945.47 2546.13 1936.22 2543.82 1931.53 2539.69C1926.83 2535.56 1923.37 2526.68 1925.31 2509.7C1927.2 2493.14 1934 2471.71 1945.65 2446.65C1968.89 2396.69 2010.25 2334.87 2064.39 2273.34C2118.52 2211.82 2174.58 2162.93 2221.18 2133.52C2244.55 2118.77 2264.94 2109.31 2281.12 2105.32C2297.72 2101.24 2306.97 2103.55 2311.66 2107.68C2316.36 2111.81 2319.82 2120.69 2317.88 2137.67C2315.99 2154.23 2309.2 2175.66 2297.54 2200.71C2274.3 2250.67 2232.94 2312.5 2178.81 2374.02Z" fill="#C4C4C4" stroke="#4F4F4F" stroke-width="24"/>
<path d="M2479.15 1745.53C2466.45 1795.36 2449.07 1838.69 2431.4 1868.46C2422.54 1883.38 2413.82 1894.54 2405.86 1901.43C2397.71 1908.48 2391.71 1909.96 2387.66 1908.93C2383.61 1907.9 2379.05 1903.73 2375.27 1893.63C2371.58 1883.77 2369.26 1869.8 2368.62 1852.46C2367.35 1817.87 2372.83 1771.5 2385.53 1721.67C2398.23 1671.84 2415.61 1628.5 2433.28 1598.74C2442.14 1583.81 2450.86 1572.66 2458.82 1565.77C2466.97 1558.71 2472.97 1557.23 2477.02 1558.26C2481.07 1559.29 2485.63 1563.47 2489.41 1573.56C2493.1 1583.42 2495.42 1597.39 2496.06 1614.73C2497.33 1649.32 2491.85 1695.7 2479.15 1745.53Z" fill="#C4C4C4" stroke="#4F4F4F" stroke-width="14"/>
<path d="M2482.13 160.971C2494.11 154.779 2518.72 149.033 2528.58 150.777C2532.42 156.427 2540.02 169.185 2539.79 175.028C2539.55 180.87 2519.85 191.853 2510.04 196.613C2508.43 197.059 2472.76 204.367 2455.72 211.937C2450.97 212.452 2431.81 223.995 2423.62 233.225C2424.54 225.127 2450 206.303 2460.71 200.275C2457.33 198.261 2418.57 211.96 2400.72 220.598C2391.03 221.757 2479.74 180.06 2469.41 182.418C2460.79 184.388 2430.01 189.617 2415.31 191.463C2419.58 190.743 2439.13 182.907 2447.63 178.759C2455.25 175.508 2473.51 165.421 2482.13 160.971Z" fill="#DA0300"/>
<path d="M2537.89 175.266L2538.02 175.119L2538.08 174.934C2538.58 173.526 2538.49 171.81 2538.12 170.103C2537.73 168.374 2537.03 166.537 2536.16 164.817C2535.29 163.096 2534.24 161.461 2533.15 160.138C2532.08 158.84 2530.88 157.749 2529.71 157.246C2527.38 156.249 2524.27 156.133 2521.03 156.443C2517.77 156.756 2514.24 157.519 2510.98 158.402C2507.72 159.286 2504.71 160.297 2502.48 161.117C2501.37 161.527 2500.44 161.891 2499.77 162.169C2499.44 162.308 2499.16 162.428 2498.96 162.523C2498.86 162.57 2498.76 162.615 2498.69 162.655L2498.68 162.658C2498.65 162.675 2498.58 162.712 2498.5 162.764C2498.49 162.771 2498.47 162.781 2498.44 162.793C2498.35 162.834 2498.21 162.893 2498.03 162.97C2497.68 163.122 2497.17 163.332 2496.53 163.59C2495.37 164.062 2493.81 164.69 2492.02 165.409L2491.5 165.617C2487.49 167.228 2482.48 169.246 2478.34 170.979C2476.28 171.845 2474.43 172.643 2473.03 173.287C2472.33 173.608 2471.73 173.896 2471.28 174.137C2471.05 174.257 2470.84 174.371 2470.67 174.476C2470.52 174.571 2470.34 174.695 2470.19 174.839C2470.13 174.9 2469.98 175.057 2469.9 175.298C2469.85 175.435 2469.81 175.636 2469.86 175.868C2469.92 176.11 2470.05 176.299 2470.19 176.428C2470.44 176.645 2470.72 176.685 2470.81 176.697C2470.93 176.714 2471.05 176.712 2471.15 176.706C2471.51 176.686 2472.05 176.578 2472.73 176.411C2474.15 176.067 2476.48 175.393 2479.95 174.312C2486.87 172.157 2491.91 170.86 2495.57 170.152C2499.24 169.441 2501.46 169.342 2502.77 169.526C2504.05 169.704 2504.28 170.109 2504.36 170.286C2504.42 170.43 2504.46 170.614 2504.47 170.874C2504.47 170.985 2504.47 171.093 2504.48 171.216C2504.48 171.239 2504.48 171.262 2504.48 171.286C2504.48 171.395 2504.48 171.522 2504.49 171.652C2504.46 171.687 2504.42 171.745 2504.34 171.829C2504.1 172.063 2503.71 172.36 2503.13 172.713C2501.99 173.415 2500.31 174.228 2498.25 175.115C2494.15 176.884 2488.74 178.877 2483.56 180.781L2483.44 180.826C2478.33 182.705 2473.45 184.5 2470.41 185.879C2469.64 186.228 2468.97 186.558 2468.43 186.864C2467.92 187.154 2467.44 187.475 2467.13 187.824C2466.98 187.994 2466.77 188.289 2466.73 188.687C2466.69 189.172 2466.92 189.557 2467.21 189.792C2467.46 189.993 2467.75 190.096 2467.99 190.157C2468.25 190.222 2468.54 190.264 2468.86 190.29C2472.25 190.571 2476.66 189.695 2481.33 188.331C2486.02 186.958 2491.08 185.054 2495.81 183.192C2497.34 182.586 2498.84 181.987 2500.28 181.411C2503.29 180.206 2506.04 179.105 2508.35 178.27C2510.06 177.653 2511.48 177.198 2512.54 176.957C2512.8 176.899 2513.03 176.856 2513.23 176.825C2512.92 177.218 2512.44 177.661 2511.81 178.141C2510.48 179.141 2508.63 180.186 2506.64 181.169C2502.66 183.132 2498.29 184.76 2496.87 185.204C2496.4 185.354 2495.62 185.757 2494.76 186.248C2493.86 186.758 2492.76 187.423 2491.59 188.162C2489.23 189.639 2486.53 191.43 2484.43 192.913C2483.38 193.653 2482.46 194.326 2481.81 194.849C2481.48 195.108 2481.2 195.347 2481 195.55C2480.9 195.648 2480.79 195.764 2480.7 195.889C2480.66 195.951 2480.6 196.044 2480.55 196.161C2480.51 196.262 2480.43 196.493 2480.48 196.783C2480.55 197.143 2480.79 197.403 2481.06 197.533C2481.27 197.639 2481.48 197.645 2481.57 197.643C2481.77 197.639 2481.97 197.587 2482.09 197.547C2482.38 197.459 2482.76 197.299 2483.22 197.083C2484.16 196.643 2485.59 195.894 2487.63 194.77L2487.63 194.77L2487.64 194.763C2494.76 190.694 2502.9 188.487 2510.35 186.812C2511.96 186.449 2513.56 186.107 2515.11 185.776C2517.09 185.353 2518.99 184.947 2520.74 184.536C2523.85 183.802 2526.63 183.018 2528.77 182.003C2531.63 180.652 2535.6 177.841 2537.89 175.266ZM2498.52 162.753C2498.52 162.753 2498.52 162.753 2498.52 162.753C2498.54 162.742 2498.55 162.741 2498.52 162.753Z" fill="#D9D600" stroke="#DB8F02" stroke-width="2"/>
<path d="M2539.12 129.769L2539.21 129.689L2539.29 129.602C2551.27 116.95 2571.94 104.78 2593.15 95.9018C2613.35 87.4435 2633.42 82.225 2646.26 82.2103L2670.13 144.107C2636.61 174.764 2590.51 181.264 2561.19 185.171L2544.2 185.408L2526.3 141.31L2539.12 129.769Z" fill="#C4C4C4" stroke="black" stroke-width="6"/>
<path d="M2543.05 120.754L2544.17 123.411L2546.87 122.4C2550.54 121.025 2554.61 117.994 2557.57 115.542C2559.1 114.278 2560.42 113.094 2561.35 112.225C2561.82 111.79 2562.2 111.432 2562.46 111.181C2562.59 111.056 2562.69 110.957 2562.76 110.888L2562.84 110.808L2562.86 110.785L2562.87 110.779L2562.87 110.777L2562.87 110.776C2562.87 110.776 2562.87 110.775 2560.76 108.648L2562.87 110.775L2564.84 108.822L2563.05 106.709C2561.22 104.551 2558.96 102.338 2554.94 101.054C2551.08 99.8207 2545.87 99.5288 2538.24 100.43C2531.74 101.198 2523 104.853 2514.99 108.867C2506.86 112.936 2499.06 117.59 2494.29 120.678C2494.24 120.712 2494.08 120.813 2493.91 120.97C2493.82 121.047 2493.66 121.205 2493.49 121.44C2493.35 121.627 2492.98 122.172 2492.92 122.984C2492.85 124.037 2493.33 124.977 2494.05 125.553C2494.62 125.999 2495.18 126.117 2495.38 126.153C2495.81 126.231 2496.15 126.194 2496.23 126.186L2496.23 126.185C2496.44 126.164 2496.6 126.124 2496.63 126.116L2496.64 126.115C2496.7 126.1 2496.75 126.087 2496.77 126.079C2496.82 126.067 2496.86 126.053 2496.9 126.041L2496.96 126.025L2497.2 125.96L2497.44 125.855C2501.85 123.847 2512.71 119.919 2523.03 118.046C2528.21 117.106 2533.01 116.729 2536.73 117.247C2540.5 117.773 2542.35 119.08 2543.05 120.754ZM2497.55 125.715L2497.55 125.715L2497.55 125.715Z" fill="#FF0000" stroke="black" stroke-width="6"/>
<path d="M2539 220.805C2538.99 220.81 2538.99 220.812 2539 220.81C2539.05 220.799 2539.09 220.787 2539.14 220.776L2539.74 221.889L2540.36 223.444C2540.42 223.422 2540.47 223.4 2540.53 223.377L2540.53 223.382C2540.52 223.39 2540.51 223.395 2540.51 223.395C2540.51 223.394 2540.52 223.389 2540.54 223.378L2538.89 220.364L2539 220.805ZM2539 220.805L2538.89 220.364L2539.11 220.725L2539.12 220.726L2539.12 220.735M2539 220.805C2539.01 220.793 2539.07 220.764 2539.12 220.735L2539.12 220.735M2539.12 220.735L2538.87 220.26L2538.79 219.923L2538.56 218.963L2538.3 217.892M2539.12 220.735L2539.24 220.661C2539.95 220.377 2540.79 220.016 2541.73 219.587C2541.55 219.181 2541.28 218.804 2540.9 218.496C2540.27 217.978 2539.63 217.869 2539.4 217.838C2539.11 217.799 2538.88 217.811 2538.77 217.819C2538.54 217.837 2538.36 217.878 2538.3 217.892M2538.3 217.892C2538.3 217.892 2538.3 217.892 2538.3 217.892L2538.56 218.962L2538.79 219.923L2538.87 220.26L2538.3 217.892ZM2573.29 188.385L2572.14 185.742L2574.74 184.485C2578.27 182.777 2583.27 181.923 2587.09 181.473C2589.05 181.241 2590.82 181.105 2592.1 181.026C2592.73 180.987 2593.25 180.962 2593.61 180.947C2593.79 180.939 2593.94 180.934 2594.03 180.93L2594.15 180.927L2594.18 180.926L2594.19 180.926L2594.19 180.925L2594.19 180.925C2594.19 180.925 2594.19 180.925 2594.27 183.924L2594.19 180.925L2596.96 180.852L2597.26 183.606C2597.56 186.419 2597.6 189.58 2595.76 193.374C2593.98 197.02 2590.6 200.994 2584.68 205.894C2579.64 210.07 2570.96 213.87 2562.53 216.901C2553.97 219.974 2545.22 222.407 2539.7 223.728L2539.7 223.728C2539.64 223.742 2539.46 223.784 2539.22 223.802C2539.11 223.811 2538.88 223.823 2538.59 223.784C2538.36 223.752 2537.71 223.643 2537.08 223.125C2536.27 222.454 2535.92 221.46 2536.01 220.536C2536.07 219.82 2536.37 219.331 2536.49 219.16C2536.73 218.798 2536.99 218.573 2537.05 218.526L2537.05 218.522C2537.21 218.383 2537.36 218.292 2537.38 218.277C2537.43 218.244 2537.48 218.218 2537.5 218.203C2537.54 218.181 2537.58 218.157 2537.62 218.138L2537.67 218.106L2537.89 217.973L2538.12 217.878C2542.62 216.066 2552.96 210.922 2561.43 204.746C2565.69 201.647 2569.28 198.427 2571.47 195.382C2573.69 192.287 2574.02 190.049 2573.29 188.385ZM2539.55 221.441L2539.27 220.744C2539.23 220.754 2539.19 220.765 2539.15 220.775C2539.14 220.775 2539.14 220.775 2539.14 220.776C2539.14 220.776 2539.14 220.776 2539.14 220.776L2539.17 220.825L2539.71 221.82L2539.55 221.441ZM2540.55 223.369L2540.55 223.373L2540.55 223.369Z" fill="#FF0000" stroke="black" stroke-width="6"/>
<rect x="2577.91" y="141.089" width="9.25245" height="84.6575" transform="rotate(67.5856 2577.91 141.089)" fill="#FF0000" stroke="black" stroke-width="6"/>
<path d="M2600.76 120.808C2596.51 130.738 2601.67 142.148 2611.79 146.478C2621.91 150.809 2633.72 146.659 2637.97 136.729C2642.22 126.799 2637.06 115.39 2626.94 111.059C2616.82 106.729 2605.01 110.879 2600.76 120.808Z" fill="#7ED9ED"/>
<path d="M2600.76 120.808C2596.51 130.738 2601.67 142.148 2611.79 146.478C2621.91 150.809 2633.72 146.659 2637.97 136.729C2642.22 126.799 2637.06 115.39 2626.94 111.059C2616.82 106.729 2605.01 110.879 2600.76 120.808Z" fill="url(#paint0_linear)"/>
<path d="M2600.76 120.808C2596.51 130.738 2601.67 142.148 2611.79 146.478C2621.91 150.809 2633.72 146.659 2637.97 136.729C2642.22 126.799 2637.06 115.39 2626.94 111.059C2616.82 106.729 2605.01 110.879 2600.76 120.808Z" stroke="black" stroke-width="6"/>
<path d="M2674.78 139.846L2650.65 82.3478C2658.19 82.5 2668.39 83.6081 2678.32 85.4782C2684.31 86.6058 2690.13 87.9975 2695.15 89.5936C2699.17 90.8734 2702.55 92.2458 2705.07 93.6507C2702.97 100.482 2698.18 109.501 2692.25 118.355C2686.74 126.575 2680.44 134.37 2674.78 139.846Z" fill="#FF0000" stroke="black" stroke-width="6"/>
<ellipse cx="2695.28" cy="105.073" rx="2.41359" ry="11.145" transform="rotate(29.4237 2695.28 105.073)" fill="#DCDCDC"/>
<rect x="2305.05" y="988.378" width="22.512" height="59.6701" transform="rotate(58.707 2305.05 988.378)" fill="#E4E2E2"/>
<rect x="2334.17" y="1097.4" width="5.81748" height="30.1784" transform="rotate(58.707 2334.17 1097.4)" fill="#E4E2E2"/>
<rect x="2249.84" y="1012.42" width="142.894" height="47.4711" transform="rotate(58.707 2249.84 1012.42)" fill="#E4E2E2"/>
<rect x="2249.45" y="990.684" width="180.448" height="21.9157" rx="10.9578" transform="rotate(58.707 2249.45 990.684)" fill="#F7F4F4"/>
<ellipse cx="2218.63" cy="1052.47" rx="23.8108" ry="24.5915" transform="rotate(58.707 2218.63 1052.47)" fill="#4F4F4F"/>
<ellipse cx="2216.33" cy="1048.7" rx="11.256" ry="12.9877" transform="rotate(58.707 2216.33 1048.7)" fill="#C4C4C4"/>
<ellipse cx="2246.37" cy="1099.48" rx="23.6708" ry="24.4469" transform="rotate(58.707 2246.37 1099.48)" fill="#4F4F4F"/>
<ellipse cx="2246.37" cy="1099.48" rx="11.1898" ry="12.9113" transform="rotate(58.707 2246.37 1099.48)" fill="#C4C4C4"/>
<ellipse cx="2274.64" cy="1145.99" rx="23.6708" ry="24.4469" transform="rotate(58.707 2274.64 1145.99)" fill="#4F4F4F"/>
<ellipse cx="2274.64" cy="1145.99" rx="11.1898" ry="12.9113" transform="rotate(58.707 2274.64 1145.99)" fill="#C4C4C4"/>
<rect x="2311.11" y="956.869" width="67.3202" height="28.7567" rx="14.3783" transform="rotate(58.707 2311.11 956.869)" fill="#F7F4F4"/>
<ellipse cx="2325.9" cy="1008.85" rx="5.37063" ry="7.17788" transform="rotate(58.707 2325.9 1008.85)" fill="#4F4F4F"/>
<ellipse cx="2327.23" cy="1005.66" rx="1.08953" ry="1.02543" transform="rotate(58.707 2327.23 1005.66)" fill="#C4C4C4"/>
<rect x="2311.36" y="963.449" width="31.4408" height="3.98704" rx="1.99352" transform="rotate(58.707 2311.36 963.449)" fill="white"/>
<rect x="2313.23" y="966.98" width="14.2052" height="3.98704" rx="1.99352" transform="rotate(148.707 2313.23 966.98)" fill="white"/>
<ellipse cx="2338.31" cy="1098.36" rx="7.6355" ry="7.22646" transform="rotate(58.707 2338.31 1098.36)" fill="#C4C4C4"/>
<ellipse cx="2337.16" cy="1096.47" rx="5.42149" ry="5.13106" transform="rotate(58.707 2337.16 1096.47)" fill="#F7F4F4"/>
<defs>
<linearGradient id="paint0_linear" x1="2630.61" y1="146.314" x2="2606.2" y2="115.709" gradientUnits="userSpaceOnUse">
<stop stop-color="#7ED9ED"/>
<stop offset="0.5625" stop-color="white"/>
<stop offset="1" stop-color="#7ED9ED"/>
</linearGradient>
</defs>
</svg>
