<svg width="929" height="417" viewBox="0 0 929 417" fill="none" xmlns="http://www.w3.org/2000/svg">
<ellipse cx="-307" cy="638" rx="1236" ry="638" fill="#BFBFBF"/>
<path d="M278.468 417.578C225.774 353.666 284.134 274.766 361.333 264.161C334.892 257.091 274.502 256.526 244.472 310.823C214.442 365.119 254.623 404.617 278.468 417.578Z" fill="#312E2E" fill-opacity="0.5"/>
<path d="M442.073 394.955C458.835 381.522 458.363 322.661 434.991 305.874M361.333 264.161C284.134 274.766 225.774 353.666 278.468 417.578C254.623 404.617 214.442 365.119 244.472 310.823C274.502 256.526 334.892 257.091 361.333 264.161Z" stroke="#4F4F4F"/>
<path d="M486.435 350.392C486.16 375.563 472.067 398.573 448.763 415.352C425.461 432.129 393.194 442.448 357.484 442.059C321.774 441.671 289.74 430.652 266.81 413.372C243.878 396.09 230.29 372.779 230.565 347.608C230.84 322.437 244.933 299.427 268.237 282.648C291.539 265.871 323.806 255.552 359.516 255.941C395.226 256.329 427.26 267.348 450.19 284.628C473.122 301.91 486.71 325.221 486.435 350.392Z" stroke="#4F4F4F" stroke-width="9"/>
<path d="M1.71418 171.221C-24.9574 143.484 -0.737311 104.857 34.6334 97.2021C22.1384 94.8659 -5.84581 96.749 -17.8217 122.971C-29.7977 149.192 -9.78776 166.063 1.71418 171.221Z" fill="#312E2E" fill-opacity="0.5"/>
<path d="M76.6691 154.929C83.9535 148.11 81.643 120.857 70.2238 113.911M34.6334 97.2021C-0.737311 104.857 -24.9574 143.484 1.71418 171.221C-9.78776 166.063 -29.7977 149.192 -17.8217 122.971C-5.84581 96.749 22.1383 94.8659 34.6334 97.2021Z" stroke="#4F4F4F"/>
<path d="M93.2225 132.866C93.9277 143.593 88.7007 154.063 78.9372 162.3C69.1753 170.536 55.1042 176.294 39.0151 177.352C22.926 178.411 8.22213 174.544 -2.53385 167.658C-13.2916 160.771 -19.8442 151.076 -20.5494 140.349C-21.2546 129.621 -16.0276 119.152 -6.26408 110.915C3.4978 102.679 17.5689 96.9203 33.658 95.8622C49.7471 94.804 64.451 98.6703 75.207 105.557C85.9647 112.444 92.5173 122.139 93.2225 132.866Z" stroke="#4F4F4F" stroke-width="9"/>
</svg>
