<svg width="311" height="315" viewBox="0 0 311 315" fill="none" xmlns="http://www.w3.org/2000/svg">
<path d="M83.1256 160.971C95.1137 154.779 119.718 149.033 129.584 150.777C133.417 156.426 141.024 169.185 140.789 175.028C140.553 180.87 120.855 191.853 111.036 196.613C109.43 197.059 73.7576 204.367 56.7224 211.937C51.9737 212.452 32.8142 223.995 24.6204 233.225C25.5377 225.127 50.9961 206.303 61.7117 200.275C58.328 198.261 19.5676 211.96 1.72161 220.598C-7.97208 221.757 80.7359 180.06 70.4126 182.418C61.7871 184.388 31.0131 189.617 16.3089 191.463C20.5791 190.743 40.1338 182.907 48.6298 178.759C56.2467 175.508 74.5091 165.421 83.1256 160.971Z" fill="#DA0300"/>
<path d="M88.6274 194.77L88.6275 194.77L88.6393 194.763C95.7602 190.694 103.897 188.487 111.347 186.812C112.962 186.449 114.562 186.107 116.111 185.776C118.093 185.353 119.993 184.947 121.736 184.536C124.855 183.802 127.632 183.018 129.775 182.003C132.627 180.652 136.602 177.841 138.888 175.266L139.019 175.119L139.084 174.934C139.578 173.526 139.492 171.81 139.116 170.103C138.735 168.374 138.032 166.537 137.163 164.817C136.294 163.096 135.244 161.461 134.151 160.138C133.077 158.84 131.885 157.749 130.708 157.246C128.379 156.249 125.268 156.133 122.035 156.443C118.77 156.756 115.239 157.519 111.984 158.402C108.723 159.286 105.713 160.297 103.482 161.117C102.366 161.527 101.44 161.891 100.772 162.169C100.438 162.308 100.163 162.428 99.9579 162.523C99.8561 162.57 99.7636 162.615 99.6865 162.655L99.6822 162.658C99.6491 162.675 99.5778 162.712 99.5007 162.764C99.4861 162.771 99.4661 162.781 99.4396 162.793C99.3488 162.834 99.214 162.893 99.0342 162.97C98.6766 163.122 98.167 163.332 97.5316 163.59C96.3722 164.062 94.8094 164.69 93.0188 165.409L92.5009 165.617C88.4908 167.228 83.4762 169.245 79.3452 170.979C77.2808 171.845 75.4282 172.643 74.0287 173.287C73.3301 173.608 72.7337 173.896 72.2761 174.137C72.0477 174.257 71.8437 174.371 71.6742 174.476C71.5216 174.571 71.3367 174.695 71.1918 174.839C71.1314 174.9 70.9803 175.057 70.8971 175.298C70.85 175.435 70.8122 175.636 70.8631 175.868C70.9163 176.11 71.0472 176.299 71.1937 176.428C71.4405 176.645 71.7181 176.685 71.8057 176.697C71.9319 176.713 72.0525 176.712 72.1473 176.706C72.5072 176.686 73.0488 176.578 73.7348 176.411C75.1492 176.067 77.483 175.393 80.9539 174.312C87.874 172.157 92.9074 170.86 96.5655 170.152C100.243 169.441 102.457 169.342 103.774 169.526C105.052 169.704 105.285 170.109 105.361 170.286C105.423 170.43 105.456 170.614 105.468 170.874C105.474 170.985 105.475 171.093 105.476 171.216C105.476 171.239 105.477 171.262 105.477 171.286C105.478 171.395 105.48 171.522 105.488 171.652C105.464 171.687 105.418 171.745 105.335 171.829C105.103 172.063 104.71 172.36 104.133 172.713C102.988 173.415 101.306 174.228 99.2524 175.115C95.1544 176.884 89.7382 178.877 84.5606 180.781L84.4398 180.826C79.3318 182.704 74.4491 184.5 71.4073 185.879C70.6377 186.228 69.9672 186.558 69.4315 186.864C68.9236 187.154 68.4406 187.475 68.1335 187.824C67.9841 187.994 67.7702 188.288 67.7332 188.687C67.6882 189.172 67.922 189.557 68.2124 189.792C68.4607 189.993 68.755 190.096 68.9945 190.157C69.2509 190.222 69.545 190.264 69.8648 190.29C73.2524 190.571 77.665 189.695 82.3273 188.331C87.018 186.958 92.0806 185.054 96.8086 183.192C98.3449 182.586 99.8428 181.987 101.282 181.411C104.292 180.206 107.045 179.105 109.353 178.27C111.058 177.653 112.475 177.198 113.544 176.957C113.803 176.899 114.033 176.856 114.234 176.825C113.921 177.218 113.442 177.661 112.807 178.141C111.483 179.141 109.634 180.186 107.641 181.169C103.661 183.132 99.2898 184.76 97.8747 185.204C97.3974 185.354 96.6254 185.757 95.7626 186.248C94.8636 186.758 93.765 187.423 92.5874 188.162C90.2318 189.639 87.5314 191.43 85.4264 192.913C84.376 193.653 83.4609 194.326 82.8081 194.849C82.4852 195.108 82.205 195.347 82.001 195.55C81.9021 195.648 81.7931 195.764 81.704 195.889C81.66 195.951 81.5993 196.044 81.5507 196.161C81.5086 196.262 81.4273 196.493 81.4811 196.783C81.548 197.143 81.7854 197.403 82.0555 197.533C82.2736 197.639 82.4755 197.645 82.572 197.643C82.7741 197.639 82.9663 197.587 83.0951 197.547C83.3817 197.459 83.7615 197.299 84.2234 197.082C85.1624 196.643 86.5952 195.894 88.6274 194.77ZM99.5245 162.752C99.5239 162.753 99.5232 162.753 99.5225 162.753C99.5425 162.742 99.5469 162.741 99.5245 162.752Z" fill="#D9D600" stroke="#DB8F02" stroke-width="2"/>
<path d="M136.924 132.644L157.997 185.229L145.197 185.408L127.298 141.31L136.924 132.644ZM271.126 144.107C238.417 174.03 193.708 180.938 164.323 184.885L141.621 128.233C153.76 116.075 173.711 104.46 194.149 95.9017C214.35 87.4435 234.421 82.225 247.256 82.2103L271.126 144.107Z" fill="#C4C4C4" stroke="black" stroke-width="6"/>
<path d="M96.9202 123.196C96.9131 123.201 96.9143 123.202 96.9215 123.201L97.6796 126.08C97.6298 126.088 97.5734 126.096 97.5127 126.102L97.5066 126.103C97.4359 126.111 97.1 126.147 96.6835 126.074C96.4868 126.04 95.9385 125.929 95.383 125.507C94.6689 124.964 94.1503 124.048 94.2032 122.972C94.2442 122.139 94.6167 121.576 94.7543 121.382C94.9262 121.14 95.0965 120.978 95.1818 120.9C95.2393 120.848 95.2946 120.802 95.3447 120.763L96.9202 123.196ZM96.9202 123.196L96.7006 122.362L95.5614 120.608C95.5278 120.629 95.4472 120.682 95.3448 120.763L96.9202 123.196ZM97.0578 123.16L97.1683 123.58L97.1683 123.58L97.8198 126.053C97.8203 126.053 97.8207 126.053 97.8212 126.053L97.1696 123.582L97.1696 123.582L97.0619 123.173L97.0578 123.16ZM97.0578 123.16L97.0614 123.171L97.0584 123.16M97.0578 123.16L97.0584 123.16M97.0584 123.16L97.0804 123.23L97.2189 123.658L97.2189 123.658L97.8488 125.604L97.9812 126.013C97.9814 126.013 97.9816 126.013 97.9818 126.013L97.8461 125.594L97.2202 123.66L97.2202 123.66L97.0584 123.16ZM163.873 110.776C163.874 110.776 163.874 110.775 161.758 108.648L163.874 110.775L165.838 108.822L164.047 106.709C162.219 104.551 159.96 102.338 155.942 101.054C152.082 99.8207 146.868 99.5288 139.238 100.43C132.737 101.198 124 104.853 115.985 108.867C107.859 112.936 100.06 117.59 95.2899 120.678C95.2369 120.712 95.0827 120.813 94.9086 120.97C94.8235 121.047 94.6561 121.205 94.486 121.44C94.3505 121.627 93.982 122.172 93.9233 122.984C93.8471 124.037 94.3253 124.977 95.0532 125.553C95.6161 125.999 96.1802 126.117 96.3816 126.153C96.8077 126.231 97.153 126.194 97.226 126.186L97.2323 126.185C97.4371 126.164 97.5987 126.124 97.6338 126.116L97.6371 126.115C97.6972 126.1 97.7462 126.087 97.7733 126.079C97.8163 126.067 97.8618 126.053 97.8995 126.041L97.9597 126.025L98.2051 125.96L98.4362 125.855C102.854 123.847 113.708 119.919 124.028 118.046C129.205 117.106 134.014 116.729 137.727 117.247C141.502 117.773 143.349 119.08 144.052 120.754L145.17 123.411L147.87 122.4C151.542 121.025 155.612 117.994 158.572 115.542C160.097 114.278 161.415 113.094 162.352 112.225C162.821 111.79 163.197 111.432 163.457 111.181C163.588 111.056 163.689 110.957 163.76 110.888L163.841 110.808L163.864 110.785L163.87 110.779L163.873 110.777L163.873 110.776ZM98.5505 125.715L98.5506 125.715L98.5505 125.715Z" fill="#FF0000" stroke="black" stroke-width="6"/>
<path d="M195.194 180.925C195.194 180.925 195.195 180.925 195.274 183.924L195.195 180.925L197.963 180.852L198.257 183.606C198.557 186.419 198.6 189.58 196.756 193.374C194.985 197.02 191.599 200.994 185.681 205.894C180.638 210.07 171.963 213.87 163.528 216.901C154.975 219.974 146.224 222.407 140.697 223.728L140.697 223.728C140.635 223.742 140.456 223.784 140.222 223.802C140.108 223.811 139.878 223.823 139.59 223.784C139.361 223.752 138.713 223.643 138.085 223.126C137.271 222.455 136.921 221.462 137.005 220.537C137.071 219.821 137.374 219.331 137.487 219.16C137.725 218.798 137.99 218.573 138.047 218.526L138.051 218.522C138.208 218.388 138.349 218.298 138.379 218.279L138.382 218.277C138.434 218.244 138.478 218.218 138.502 218.203C138.54 218.181 138.582 218.158 138.617 218.138L138.67 218.106L138.886 217.973L139.121 217.878C143.623 216.066 153.957 210.922 162.434 204.746C166.687 201.647 170.279 198.427 172.467 195.382C174.691 192.287 175.02 190.049 174.294 188.385L173.142 185.742L175.737 184.485C179.266 182.777 184.268 181.923 188.086 181.473C190.053 181.241 191.82 181.105 193.095 181.026C193.734 180.987 194.252 180.962 194.613 180.947C194.794 180.939 194.936 180.934 195.034 180.93L195.149 180.927L195.181 180.926L195.19 180.926L195.193 180.925L195.194 180.925ZM140.935 223.58L140.451 221.544L139.999 220.81C139.991 220.812 139.991 220.81 139.997 220.806L138.437 218.271C138.396 218.301 138.352 218.336 138.305 218.376L138.3 218.38C138.246 218.426 137.988 218.644 137.753 218.995C137.642 219.161 137.344 219.635 137.266 220.329C137.167 221.221 137.472 222.228 138.287 222.932C138.919 223.477 139.583 223.596 139.818 223.63C140.111 223.672 140.347 223.661 140.461 223.653C140.539 223.647 140.61 223.639 140.673 223.63C140.673 223.63 140.673 223.63 140.673 223.63C140.802 223.611 140.896 223.589 140.935 223.58ZM139.893 220.366L140.12 220.735L140.121 220.735L140.115 220.726L140.115 220.725L139.893 220.364L139.893 220.366ZM139.893 220.364L138.554 218.187C138.553 218.187 138.553 218.187 138.553 218.188L139.893 220.366L139.893 220.364Z" fill="#FF0000" stroke="black" stroke-width="6"/>
<rect x="178.914" y="141.089" width="9.25245" height="84.6575" transform="rotate(67.5856 178.914 141.089)" fill="#FF0000" stroke="black" stroke-width="6"/>
<path d="M201.758 120.808C197.51 130.738 202.665 142.148 212.788 146.478C222.911 150.809 234.723 146.659 238.971 136.729C243.22 126.799 238.064 115.39 227.941 111.059C217.819 106.729 206.006 110.878 201.758 120.808Z" fill="#7ED9ED"/>
<path d="M201.758 120.808C197.51 130.738 202.665 142.148 212.788 146.478C222.911 150.809 234.723 146.659 238.971 136.729C243.22 126.799 238.064 115.39 227.941 111.059C217.819 106.729 206.006 110.878 201.758 120.808Z" fill="url(#paint0_linear)"/>
<path d="M201.758 120.808C197.51 130.738 202.665 142.148 212.788 146.478C222.911 150.809 234.723 146.659 238.971 136.729C243.22 126.799 238.064 115.39 227.941 111.059C217.819 106.729 206.006 110.878 201.758 120.808Z" stroke="black" stroke-width="6"/>
<path d="M293.249 118.355C287.743 126.575 281.44 134.37 275.779 139.846L251.651 82.3478C259.189 82.5 269.386 83.6081 279.319 85.4782C285.308 86.6058 291.131 87.9975 296.149 89.5936C300.174 90.8734 303.555 92.2458 306.069 93.6507C303.967 100.482 299.181 109.501 293.249 118.355Z" fill="#FF0000" stroke="black" stroke-width="6"/>
<ellipse cx="296.279" cy="105.073" rx="2.41359" ry="11.145" transform="rotate(29.4237 296.279 105.073)" fill="#DCDCDC"/>
<defs>
<linearGradient id="paint0_linear" x1="231.608" y1="146.314" x2="207.203" y2="115.709" gradientUnits="userSpaceOnUse">
<stop stop-color="#7ED9ED"/>
<stop offset="0.5625" stop-color="white"/>
<stop offset="1" stop-color="#7ED9ED"/>
</linearGradient>
</defs>
</svg>
